<svg width="1493" height="838" viewBox="0 0 1493 838" fill="none" xmlns="http://www.w3.org/2000/svg">
<mask id="mask0" mask-type="alpha" maskUnits="userSpaceOnUse" x="0" y="0" width="1493" height="838">
<rect width="1493" height="838" fill="#C4C4C4"/>
</mask>
<g mask="url(#mask0)">
<path d="M925.98 274.362C1143.59 198.796 1189.7 71.3016 1185.56 17H1470V837H563.817C504.752 572.793 653.969 368.82 925.98 274.362Z" fill="#FAEED4"/>
<path d="M1485 837H864.855C770.621 584.279 1150.13 571.301 1288.52 368.189C1377.22 238.011 1485 17 1485 17V837Z" fill="#F8B57C"/>
<ellipse cx="813.5" cy="347.163" rx="4.64866" ry="7.18612" transform="rotate(50.3916 813.5 347.163)" fill="white"/>
<ellipse cx="1009.5" cy="355.163" rx="4.64866" ry="7.18612" transform="rotate(50.3916 1009.5 355.163)" fill="white"/>
<ellipse cx="1437.5" cy="765.163" rx="4.64866" ry="7.18612" transform="rotate(50.3916 1437.5 765.163)" fill="white"/>
<ellipse cx="908.5" cy="415.163" rx="4.64866" ry="7.18612" transform="rotate(50.3916 908.5 415.163)" fill="white"/>
<ellipse cx="1320.5" cy="803.163" rx="4.64866" ry="7.18612" transform="rotate(50.3916 1320.5 803.163)" fill="white"/>
<ellipse cx="1030.5" cy="471.163" rx="4.64866" ry="7.18612" transform="rotate(50.3916 1030.5 471.163)" fill="white"/>
<path d="M953.464 776.744C950.407 779.274 946.601 779.722 944.964 777.744C943.327 775.766 944.479 772.112 947.537 769.581C950.594 767.051 954.4 766.603 956.037 768.581C957.674 770.559 956.522 774.214 953.464 776.744Z" fill="white"/>
<ellipse cx="1210.5" cy="609.163" rx="4.64866" ry="7.18612" transform="rotate(50.3916 1210.5 609.163)" fill="white"/>
<ellipse cx="1378.5" cy="343.163" rx="4.64866" ry="7.18612" transform="rotate(50.3916 1378.5 343.163)" fill="white"/>
<ellipse cx="1328.5" cy="145.163" rx="4.64866" ry="7.18612" transform="rotate(50.3916 1328.5 145.163)" fill="white"/>
<ellipse cx="1254.5" cy="83.1628" rx="4.64866" ry="7.18612" transform="rotate(50.3916 1254.5 83.1628)" fill="white"/>
<ellipse cx="1136.5" cy="789.163" rx="4.64866" ry="7.18612" transform="rotate(50.3916 1136.5 789.163)" fill="white"/>
<ellipse cx="1013.5" cy="365.163" rx="4.64866" ry="7.18612" transform="rotate(50.3916 1013.5 365.163)" fill="white"/>
</g>
</svg>
