<svg width="518" height="740" viewBox="0 0 518 740" fill="none" xmlns="http://www.w3.org/2000/svg">
<path d="M207.965 232.254C328.651 164.06 354.225 49.0039 351.927 0H509.681V740H7.10855C-25.6492 501.569 57.1072 317.496 207.965 232.254Z" fill="#FAEED4"/>
<path d="M518 740H174.066C121.803 511.934 332.278 500.223 409.033 316.926C458.227 199.449 518 0 518 0V740Z" fill="#F8B57C"/>
<ellipse rx="3.62596" ry="5.1499" transform="matrix(0.453308 0.891354 -0.596219 0.802822 89.5686 386.391)" fill="white"/>
<ellipse rx="3.62596" ry="5.1499" transform="matrix(0.453308 0.891354 -0.596219 0.802822 145.583 297.952)" fill="white"/>
<ellipse rx="3.62596" ry="5.1499" transform="matrix(0.453308 0.891354 -0.596219 0.802822 254.286 305.171)" fill="white"/>
<ellipse rx="3.62596" ry="5.1499" transform="matrix(0.453308 0.891354 -0.596219 0.802822 491.656 675.171)" fill="white"/>
<ellipse rx="3.62596" ry="5.1499" transform="matrix(0.453308 0.891354 -0.596219 0.802822 198.271 359.318)" fill="white"/>
<ellipse rx="3.62596" ry="5.1499" transform="matrix(0.453308 0.891354 -0.596219 0.802822 351.342 211.318)" fill="white"/>
<ellipse rx="3.62596" ry="5.1499" transform="matrix(0.453308 0.891354 -0.596219 0.802822 426.768 709.464)" fill="white"/>
<ellipse rx="3.62596" ry="5.1499" transform="matrix(0.453308 0.891354 -0.596219 0.802822 265.933 409.854)" fill="white"/>
<ellipse rx="3.62596" ry="5.1499" transform="matrix(0.453308 0.891354 -0.596219 0.802822 475.573 202.293)" fill="white"/>
<ellipse rx="3.62596" ry="5.1499" transform="matrix(0.453308 0.891354 -0.596219 0.802822 221.564 682.391)" fill="white"/>
<ellipse rx="3.62596" ry="5.1499" transform="matrix(0.453308 0.891354 -0.596219 0.802822 327.714 524.366)" fill="white"/>
<ellipse rx="3.62596" ry="5.1499" transform="matrix(0.453308 0.891354 -0.596219 0.802822 466.714 380.366)" fill="white"/>
<ellipse rx="3.62596" ry="5.1499" transform="matrix(0.453308 0.891354 -0.596219 0.802822 320.714 260.366)" fill="white"/>
<ellipse rx="3.62596" ry="5.1499" transform="matrix(0.453308 0.891354 -0.596219 0.802822 324.721 696.83)" fill="white"/>
<ellipse rx="3.62596" ry="5.1499" transform="matrix(0.453308 0.891354 -0.596219 0.802822 143.92 191.464)" fill="#FAEED4"/>
<ellipse rx="3.62596" ry="5.1499" transform="matrix(0.453308 0.891354 -0.596219 0.802822 95.1145 299.757)" fill="#FAEED4"/>
</svg>
