<svg width="99" height="99" viewBox="0 0 99 99" fill="none" xmlns="http://www.w3.org/2000/svg">
<g clip-path="url(#clip0)">
<path d="M53.8216 93.303C53.017 93.303 52.3647 92.6507 52.3647 91.8461V87.972C52.3647 87.4172 51.9133 86.9657 51.3585 86.9657H47.4471C46.8923 86.9657 46.4408 87.4172 46.4408 87.972V91.8461C46.4408 92.6507 45.7885 93.303 44.9839 93.303C44.1793 93.303 43.527 92.6507 43.527 91.8461V87.972C43.527 85.8105 45.2856 84.0519 47.4471 84.0519H51.3585C53.52 84.0519 55.2786 85.8105 55.2786 87.972V91.8461C55.2786 92.6507 54.6264 93.303 53.8216 93.303Z" fill="#FF910F"/>
<path d="M63.4108 40.0455C62.9321 39.3989 62.0197 39.2631 61.3728 39.7415C60.7261 40.2204 60.5901 41.1328 61.0688 41.7795L68.3035 51.5509C69.1084 52.6377 69.0501 54.2747 68.1711 55.2779L60.3765 64.1731H38.4292L30.6346 55.2779C29.7556 54.2747 29.6973 52.6377 30.5021 51.5509L44.8658 32.1511V43.2052C43.045 44.6046 41.9806 46.7449 41.9806 49.0811C41.9806 53.1737 45.3102 56.5033 49.4028 56.5033C53.4955 56.5033 56.825 53.1737 56.825 49.0811C56.825 46.85 55.8322 44.7666 54.1342 43.3631V32.4135L57.3334 36.7344C57.8123 37.3813 58.7247 37.5171 59.3714 37.0384C60.0181 36.5596 60.154 35.6472 59.6754 35.0005L53.4261 26.56C52.4424 25.2313 50.9759 24.4692 49.403 24.4692C47.8301 24.4692 46.3637 25.2313 45.38 26.56L28.1604 49.8171C26.5455 51.9982 26.6671 55.1714 28.4434 57.1985L34.9438 64.6166C33.3206 65.3735 32.1924 67.0198 32.1924 68.9257V75.8764C32.1924 78.0043 33.5982 79.8099 35.5299 80.4137L35.9274 91.897C35.9546 92.6842 36.6011 93.3037 37.3826 93.3037C37.3997 93.3037 37.4167 93.3035 37.4338 93.3029C38.2381 93.2749 38.8673 92.6006 38.8395 91.7964L38.4529 80.6289H60.5474L60.1608 91.7964C60.1331 92.6006 60.7625 93.2749 61.5665 93.3029C61.5836 93.3035 61.6007 93.3037 61.6178 93.3037C62.3991 93.3037 63.0458 92.6842 63.073 91.897L63.4727 80.3471C65.3025 79.6856 66.6137 77.9315 66.6137 75.8764V68.9257C66.6137 67.0198 65.4854 65.3735 63.8622 64.6166L70.3627 57.1985C72.139 55.1716 72.2606 51.9982 70.6457 49.8171L63.4108 40.0455ZM49.4028 27.3829C50.052 27.3829 50.6492 27.7063 51.0839 28.2935L51.2203 28.4777V44.0952C51.2203 44.5854 51.4668 45.0428 51.8763 45.3123C53.1505 46.1507 53.9112 47.5596 53.9112 49.0807C53.9112 51.5666 51.8888 53.589 49.4028 53.589C46.9169 53.589 44.8945 51.5666 44.8945 49.0807C44.8945 47.4876 45.71 46.0438 47.076 45.2184C47.5127 44.9546 47.7796 44.4816 47.7796 43.9715V28.223C48.2089 27.6822 48.7812 27.3829 49.4028 27.3829ZM63.6998 75.876C63.6998 76.8897 62.875 77.7145 61.8614 77.7145H36.9445C35.9307 77.7145 35.1061 76.8897 35.1061 75.876V68.9253C35.1061 67.9116 35.9309 67.0868 36.9445 67.0868H61.8614C62.8752 67.0868 63.6998 67.9116 63.6998 68.9253V75.876Z" fill="#FF910F"/>
<path d="M20.4093 40.4925C20.6006 35.8765 21.8845 31.3571 24.1567 27.3523C24.5538 26.6524 24.3084 25.7633 23.6085 25.3662C22.9086 24.9689 22.0195 25.2145 21.6224 25.9144C19.1041 30.3526 17.6881 35.3637 17.4931 40.4783C14.9788 41.1176 13.1136 43.3999 13.1136 46.1104C13.1136 49.3145 15.7203 51.9212 18.9244 51.9212C22.1285 51.9212 24.7352 49.3145 24.7352 46.1104C24.7352 43.4194 22.8964 41.1504 20.4093 40.4925ZM18.9244 49.0074C17.327 49.0074 16.0274 47.7078 16.0274 46.1104C16.0274 44.513 17.327 43.2134 18.9244 43.2134C20.5218 43.2134 21.8214 44.513 21.8214 46.1104C21.8214 47.7078 20.5218 49.0074 18.9244 49.0074Z" fill="#FF910F"/>
<path d="M95.9152 5.69702H91.2332C89.5323 5.69702 88.1484 7.08091 88.1484 8.78184V9.6659H54.9258V8.78184C54.9258 7.08091 53.5419 5.69702 51.841 5.69702H47.159C45.4581 5.69702 44.0742 7.08091 44.0742 8.78184V9.6659H10.8516V8.78184C10.8516 7.08091 9.46773 5.69702 7.7668 5.69702H3.0848C1.38388 5.69702 -1.14441e-05 7.08091 -1.14441e-05 8.78184V13.4638C-1.14441e-05 15.1648 1.38388 16.5487 3.0848 16.5487H7.7668C9.46773 16.5487 10.8516 15.1648 10.8516 13.4638V12.5798H36.1434C32.0986 14.4377 28.4473 17.1365 25.4489 20.5426C24.9172 21.1465 24.9757 22.0671 25.5799 22.5988C25.8567 22.8424 26.1999 22.9623 26.542 22.9623C26.9461 22.9623 27.3482 22.7952 27.6361 22.4681C31.9443 17.5741 37.732 14.2842 44.0742 13.0874V13.464C44.0742 15.165 45.4581 16.5488 47.159 16.5488H51.841C53.5419 16.5488 54.9258 15.165 54.9258 13.464V13.0872C68.1522 15.5793 78.0341 26.9851 78.5924 40.4923C76.1046 41.1497 74.2648 43.419 74.2648 46.1106C74.2648 49.3147 76.8715 51.9214 80.0756 51.9214C83.2797 51.9214 85.8864 49.3147 85.8864 46.1106C85.8864 43.4005 84.0214 41.1182 81.5073 40.4787C81.0416 28.2232 73.5981 17.5244 62.8574 12.5802H88.1484V13.4642C88.1484 15.1651 89.5323 16.549 91.2332 16.549H95.9152C97.6161 16.549 99 15.1651 99 13.4642V8.78184C99 7.08091 97.6161 5.69702 95.9152 5.69702ZM7.93775 13.4638C7.93775 13.5581 7.86102 13.6348 7.7668 13.6348H3.0848C2.99059 13.6348 2.91386 13.5581 2.91386 13.4638V8.78184C2.91386 8.68762 2.99059 8.61089 3.0848 8.61089H7.7668C7.86102 8.61089 7.93775 8.68762 7.93775 8.78184V13.4638ZM82.9726 46.1102C82.9726 47.7076 81.673 49.0072 80.0756 49.0072C78.4782 49.0072 77.1786 47.7076 77.1786 46.1102C77.1786 44.5128 78.4782 43.2132 80.0756 43.2132C81.673 43.2132 82.9726 44.5128 82.9726 46.1102ZM52.0119 13.4638C52.0119 13.5581 51.9352 13.6348 51.841 13.6348H47.159C47.0648 13.6348 46.988 13.5581 46.988 13.4638V8.78184C46.988 8.68762 47.0648 8.61089 47.159 8.61089H51.841C51.9352 8.61089 52.0119 8.68762 52.0119 8.78184V13.4638ZM96.0861 13.4638C96.0861 13.5581 96.0094 13.6348 95.9152 13.6348H91.2332C91.139 13.6348 91.0622 13.5581 91.0622 13.4638V8.78184C91.0622 8.68762 91.139 8.61089 91.2332 8.61089H95.9152C96.0094 8.61089 96.0861 8.68762 96.0861 8.78184V13.4638Z" fill="#FF910F"/>
</g>
<defs>
<clipPath id="clip0">
<rect width="99" height="99" fill="white"/>
</clipPath>
</defs>
</svg>
