<svg width="83" height="90" viewBox="0 0 83 90" fill="none" xmlns="http://www.w3.org/2000/svg">
<g clip-path="url(#clip0)">
<path d="M75.1029 3.86719H20.4631C19.7824 3.86719 19.2302 4.46594 19.2302 5.20409C19.2302 5.94223 19.7824 6.5403 20.4631 6.5403H75.1029C78.0981 6.5403 80.5348 9.18251 80.5348 12.4297V59.9943C80.5348 63.2421 78.0981 65.8836 75.1029 65.8836H7.8965C4.90191 65.8836 2.4652 63.2421 2.4652 59.9943V12.4297C2.4652 9.18251 4.90191 6.5403 7.8965 6.5403H15.5321C16.2128 6.5403 16.765 5.94223 16.765 5.20409C16.765 4.46594 16.2128 3.86719 15.5321 3.86719H7.8965C3.54234 3.86719 0 7.70828 0 12.4297V59.9943C0 64.7157 3.54234 68.5567 7.8965 68.5567H27.7182L25.3036 77.1117H20.7772C18.4659 77.1117 16.5864 79.1503 16.5864 81.6559C16.5864 84.1621 18.4659 86.2001 20.7772 86.2001H62.2228C64.5335 86.2001 66.4136 84.1621 66.4136 81.6559C66.4136 79.1503 64.5335 77.1117 62.2228 77.1117H57.6964L55.2818 68.5567H75.1029C79.4577 68.5567 83 64.7157 83 59.9943V12.4297C83 7.70828 79.4577 3.86719 75.1029 3.86719ZM63.9483 81.6566C63.9483 82.6879 63.1739 83.5277 62.2228 83.5277H20.7772C19.8255 83.5277 19.0517 82.6879 19.0517 81.6566C19.0517 80.6245 19.8255 79.7855 20.7772 79.7855H62.2228C63.1739 79.7855 63.9483 80.6245 63.9483 81.6566ZM55.1178 77.1117H27.8822L30.2961 68.5574H52.7039L55.1178 77.1117Z" fill="#FF910F"/>
<path d="M75.1934 47.3785C75.8748 47.3785 76.4263 46.7798 76.4263 46.0416V12.4303C76.4263 11.6386 75.833 10.9952 75.1029 10.9952H7.89586C7.16763 10.9952 6.57492 11.6386 6.57492 12.4303V55.9939C6.57492 56.732 7.12647 57.3301 7.80721 57.3301H75.1934C75.8748 57.3301 76.4263 56.732 76.4263 55.9939V51.3885C76.4263 50.6504 75.8748 50.0523 75.1934 50.0523C74.5127 50.0523 73.9611 50.6504 73.9611 51.3885V54.657H9.04012V13.6684H73.9611V46.0416C73.9611 46.7805 74.5127 47.3785 75.1934 47.3785Z" fill="#FF910F"/>
<path d="M42.5246 60.626C42.2548 60.1811 41.7394 59.9531 41.2587 60.0575C40.7331 60.1714 40.3247 60.659 40.274 61.2385C40.1677 62.447 41.5456 63.1741 42.3542 62.3323C42.781 61.8874 42.8494 61.1602 42.5246 60.626Z" fill="#FF910F"/>
</g>
<defs>
<clipPath id="clip0">
<rect width="83" height="90" fill="white"/>
</clipPath>
</defs>
</svg>
