<svg width="97" height="97" viewBox="0 0 97 97" fill="none" xmlns="http://www.w3.org/2000/svg">
<path d="M68.2031 1.51562H28.7969C27.1896 1.51773 25.6488 2.15713 24.5124 3.29362C23.3759 4.4301 22.7365 5.9709 22.7344 7.57812V89.4219C22.7365 91.0291 23.3759 92.5699 24.5124 93.7064C25.6488 94.8429 27.1896 95.4823 28.7969 95.4844H68.2031C69.8104 95.4823 71.3512 94.8429 72.4876 93.7064C73.6241 92.5699 74.2635 91.0291 74.2656 89.4219V7.57812C74.2635 5.9709 73.6241 4.4301 72.4876 3.29362C71.3512 2.15713 69.8104 1.51773 68.2031 1.51562ZM55.5931 4.54688L54.7406 7.57812H42.106L41.3481 4.54688H55.5931ZM71.2344 89.4219C71.2333 90.2255 70.9136 90.9959 70.3454 91.5641C69.7771 92.1324 69.0067 92.4521 68.2031 92.4531H28.7969C27.9933 92.4521 27.2229 92.1324 26.6546 91.5641C26.0864 90.9959 25.7667 90.2255 25.7656 89.4219V7.57812C25.7667 6.77451 26.0864 6.00411 26.6546 5.43587C27.2229 4.86763 27.9933 4.54793 28.7969 4.54688H38.2222L39.4517 9.46129C39.5337 9.78918 39.7229 10.0803 39.9893 10.2883C40.2556 10.4963 40.5839 10.6093 40.9219 10.6094H55.8887C56.219 10.6094 56.5402 10.5015 56.8035 10.3021C57.0669 10.1027 57.2579 9.82277 57.3475 9.50486L58.7418 4.54688H68.2031C69.0067 4.54793 69.7771 4.86763 70.3454 5.43587C70.9136 6.00411 71.2333 6.77451 71.2344 7.57812V89.4219Z" fill="#FF910F"/>
<path d="M40.9219 86.3906H30.3125C29.9105 86.3906 29.525 86.5503 29.2408 86.8345C28.9566 87.1188 28.7969 87.5043 28.7969 87.9062C28.7969 88.3082 28.9566 88.6937 29.2408 88.978C29.525 89.2622 29.9105 89.4219 30.3125 89.4219H40.9219C41.3238 89.4219 41.7093 89.2622 41.9936 88.978C42.2778 88.6937 42.4375 88.3082 42.4375 87.9062C42.4375 87.5043 42.2778 87.1188 41.9936 86.8345C41.7093 86.5503 41.3238 86.3906 40.9219 86.3906Z" fill="#FF910F"/>
<path d="M46.9844 86.3906H45.4688C45.0668 86.3906 44.6813 86.5503 44.397 86.8345C44.1128 87.1188 43.9531 87.5043 43.9531 87.9062C43.9531 88.3082 44.1128 88.6937 44.397 88.978C44.6813 89.2622 45.0668 89.4219 45.4688 89.4219H46.9844C47.3863 89.4219 47.7719 89.2622 48.0561 88.978C48.3403 88.6937 48.5 88.3082 48.5 87.9062C48.5 87.5043 48.3403 87.1188 48.0561 86.8345C47.7719 86.5503 47.3863 86.3906 46.9844 86.3906Z" fill="#FF910F"/>
<path d="M53.8267 39.6222C53.656 39.5198 53.4668 39.4521 53.2699 39.4228C53.0731 39.3935 52.8724 39.4032 52.6793 39.4515C52.4862 39.4998 52.3045 39.5856 52.1446 39.7041C51.9846 39.8226 51.8496 39.9714 51.7472 40.1421L42.6535 55.2983C42.4466 55.643 42.3852 56.0558 42.4827 56.4457C42.5802 56.8357 42.8286 57.171 43.1733 57.3778C43.518 57.5846 43.9307 57.646 44.3207 57.5485C44.7107 57.451 45.0459 57.2026 45.2528 56.8579L54.3465 41.7017C54.4489 41.531 54.5167 41.3418 54.546 41.145C54.5753 40.9481 54.5655 40.7474 54.5173 40.5543C54.469 40.3612 54.3831 40.1795 54.2647 40.0196C54.1462 39.8597 53.9973 39.7246 53.8267 39.6222Z" fill="#FF910F"/>
<path d="M58.7773 39.9746C58.6529 39.8192 58.4991 39.6898 58.3247 39.5938C58.1503 39.4978 57.9587 39.4371 57.7608 39.4152C57.3612 39.3709 56.9604 39.4871 56.6465 39.7384C56.3326 39.9896 56.1314 40.3552 56.0871 40.7548C56.0428 41.1544 56.159 41.5553 56.4102 41.8691L61.7149 48.5L56.4102 55.1309C56.159 55.4447 56.0428 55.8456 56.0871 56.2452C56.1314 56.6448 56.3326 57.0104 56.6465 57.2616C56.9604 57.5129 57.3612 57.6291 57.7608 57.5848C58.1604 57.5405 58.526 57.3393 58.7773 57.0254L64.8398 49.4473C65.055 49.1784 65.1723 48.8444 65.1723 48.5C65.1723 48.1556 65.055 47.8215 64.8398 47.5527L58.7773 39.9746Z" fill="#FF910F"/>
<path d="M38.2228 57.0254C38.474 57.3393 38.8396 57.5405 39.2392 57.5848C39.6388 57.6291 40.0396 57.5129 40.3535 57.2616C40.6674 57.0104 40.8687 56.6448 40.913 56.2452C40.9573 55.8456 40.841 55.4447 40.5898 55.1309L35.2851 48.5L40.5898 41.8691C40.7142 41.7137 40.8067 41.5353 40.8622 41.3441C40.9176 41.1529 40.9349 40.9527 40.913 40.7548C40.891 40.557 40.8303 40.3653 40.7343 40.1909C40.6384 40.0165 40.509 39.8628 40.3535 39.7384C40.1981 39.614 40.0197 39.5214 39.8285 39.4659C39.6373 39.4105 39.4371 39.3932 39.2392 39.4152C39.0414 39.4371 38.8498 39.4978 38.6753 39.5938C38.5009 39.6898 38.3472 39.8192 38.2228 39.9746L32.1603 47.5527C31.945 47.8215 31.8278 48.1556 31.8278 48.5C31.8278 48.8444 31.945 49.1784 32.1603 49.4473L38.2228 57.0254Z" fill="#FF910F"/>
</svg>
